<svg class="icon" style="width: 1em;height: 1em;vertical-align: middle;fill: currentColor;overflow: hidden;" viewBox="0 0 1024 1024" version="1.1" xmlns="http://www.w3.org/2000/svg"><path d="M866.2 646.6l155.5-155.5h-124c-2.4-53.1-14.1-104.7-34.7-153.5-22.6-53.4-54.9-101.3-96-142.4-41.1-41.1-89-73.4-142.4-96C569.4 75.8 510.7 64 450.2 64S331.1 75.8 275.8 99.2c-53.4 22.6-101.3 54.9-142.4 96-41.1 41.1-73.4 89-96 142.4C14.1 392.9 2.2 451.5 2.2 512S14 631.1 37.4 686.4c22.6 53.3 54.9 101.3 96 142.4 41.1 41.1 89 73.4 142.4 96 55.3 23.4 113.9 35.2 174.4 35.2 71.1 0 139.1-16.2 202.1-48.1 60.1-30.4 113.4-74.8 154.4-128.5l-50.9-38.8C682.4 840.8 571 896 450.2 896c-211.7 0-384-172.3-384-384s172.3-384 384-384c204.7 0 372.6 161.1 383.4 363.2H710.7l155.5 155.4z" fill="#727272" /><path d="M258.2 448v256h384V448h-384z" fill="#E6C27C" /><path d="M578.2 448h-64v-62.2c0-31.8-16.8-65.8-64-65.8s-64 34-64 65.8V448h-64v-62.2c0-35.2 12-67.5 33.7-90.9 23.2-25.1 56.7-38.9 94.3-38.9s71 13.8 94.3 38.9c21.8 23.5 33.7 55.8 33.7 90.9V448z" fill="#727272" /></svg>