<svg xmlns="http://www.w3.org/2000/svg" viewBox="0 0 1024 1024">
    <path d="M725.6 228.8h-616c-38.4 0-70.4 31.2-70.4 70.4v616c0 38.4 31.2 70.4 70.4 70.4h616c38.4 0 70.4-31.2 70.4-70.4V298.4c-0.8-39.2-31.2-69.6-70.4-69.6z m-20 665.6h-576v-576h576v576z"
          fill="currentColor"/>
    <path d="M725.6 997.6h-616c-45.6 0-82.4-36.8-82.4-82.4v-616c0-45.6 36.8-82.4 82.4-82.4h616c45.6 0 81.6 36 82.4 81.6v616.8c0 44.8-36.8 82.4-82.4 82.4zM110.4 240.8c-32 0-58.4 26.4-58.4 58.4v616c0 32 26.4 58.4 58.4 58.4h616c32 0 58.4-26.4 58.4-58.4V298.4c-0.8-32-26.4-57.6-58.4-57.6h-616z m607.2 665.6h-600v-600h600v600z m-576-24h552v-552h-552v552z"
          fill="currentColor"/>
    <path d="M915.2 39.2H298.4c-38.4 0-68.8 31.2-69.6 68.8v72h70.4v-70.4h614.4v614.4h-70.4v70.4h72c38.4 0 68.8-31.2 69.6-69.6v-616c0-37.6-32-69.6-69.6-69.6z"
          fill="currentColor"/>
    <path d="M914.4 806.4h-84V712h70.4V121.6H311.2V192H216.8V108.8C217.6 64 254.4 27.2 298.4 27.2h617.6c44 0 80.8 36.8 80.8 80.8v616.8c-0.8 45.6-37.6 81.6-82.4 81.6z m-60-24h60c31.2 0 56.8-26.4 57.6-57.6v-616c0-31.2-26.4-56.8-56.8-56.8H298.4c-31.2 0-56.8 25.6-57.6 57.6v60h46.4v-70.4h638.4V736h-70.4v46.4z"
          fill="currentColor"/>
</svg>