<svg class="icon" style="width: 1em;height: 1em;vertical-align: middle;fill: currentColor;overflow: hidden;" viewBox="0 0 1024 1024" version="1.1" xmlns="http://www.w3.org/2000/svg"><path d="M269.53 756s-37.07-83.27 143.93-384.19c0 0-63.63-78-89.87-211 0 0-411.86 236.83-96.5 637.63z" fill="#279ACC" /><path d="M514.31 889.13c-208.4 0-377.95-169.55-377.95-378s169.55-378 377.95-378 378 169.55 378 378-169.59 378-378 378z m0-700.81c-178 0-322.84 144.83-322.84 322.85S336.3 834 514.31 834s322.85-144.81 322.85-322.83-144.83-322.85-322.85-322.85z" fill="#303030" /><path d="M743.69 491.83c-181.15 0-337.28-128.95-371.23-306.62a27.56 27.56 0 1 1 54.13-10.35c29 151.73 162.36 261.86 317.1 261.86A322 322 0 0 0 849.45 419a27.55 27.55 0 0 1 18 52.07 377.13 377.13 0 0 1-123.76 20.76zM621.42 872.43a27.55 27.55 0 0 1-26.91-21.76C562.76 703.16 430 596.09 278.88 596.09a322.85 322.85 0 0 0-98.7 15.36A27.55 27.55 0 1 1 163.35 559a377.86 377.86 0 0 1 115.53-18c176.93 0 332.33 125.37 369.5 298.1a27.57 27.57 0 0 1-27 33.35z" fill="#303030" /><path d="M355.55 839.89a52.83 52.83 0 0 1-26.92-7.1c-79.88-46.12 15.53-260.59 84.5-380 47.05-81.5 99.77-153.61 148.43-203 58.36-59.27 105-79.53 138.44-60.17s39.26 69.8 17.11 150c-18.46 66.86-54.55 148.56-101.61 230.06-47 81.5-99.77 153.6-148.43 203-44.07 44.7-81.44 67.21-111.52 67.21z m0.77-55.06c24 2 116.28-77.93 211.46-242.79S686.11 257.75 672.32 237.5h-0.85c-25.63 0-116.5 79.82-210.62 242.83-95.18 164.83-118.33 284.26-104.53 304.5z m235.32-229z" fill="#303030" /><path d="M815.09 718.52a27.4 27.4 0 0 1-14.17-3.94L200.19 353.53a27.55 27.55 0 1 1 28.38-47.23L829.3 667.35a27.55 27.55 0 0 1-14.21 51.17z" fill="#303030" /></svg>