<svg class="icon" style="width: 1em;height: 1em;vertical-align: middle;fill: currentColor;overflow: hidden;" viewBox="0 0 1024 1024" version="1.1" xmlns="http://www.w3.org/2000/svg"><path d="M533.333333 512C533.333333 500.224 523.776 490.666667 512 490.666667 500.224 490.666667 490.666667 500.224 490.666667 512 490.666667 523.776 500.224 533.333333 512 533.333333 523.776 533.333333 533.333333 523.776 533.333333 512" fill="#898B92" /><path d="M515.291733 375.812267C436.571733 375.812267 372.529067 439.854933 372.529067 518.5536 372.529067 597.294933 436.571733 661.3376 515.291733 661.3376 594.011733 661.3376 658.0544 597.294933 658.0544 518.5536 658.0544 439.854933 594.011733 375.812267 515.291733 375.812267M515.291733 704.004267C413.041067 704.004267 329.8624 620.804267 329.8624 518.5536 329.8624 416.324267 413.041067 333.1456 515.291733 333.1456 617.5424 333.1456 700.721067 416.324267 700.721067 518.5536 700.721067 620.804267 617.5424 704.004267 515.291733 704.004267" fill="#888A91" /><path d="M113.6448 505.728 113.6448 505.792 109.058133 511.722667C107.9488 513.109333 106.6688 515.413333 106.6688 518.570667 106.6688 521.984 107.543467 523.605333 108.503467 524.842667 150.7648 579.946667 305.239467 759.808 517.079467 759.808 728.535467 759.808 874.519467 581.376 915.714133 524.373333L915.7568 524.288C916.7808 522.538667 917.335467 520.597333 917.335467 518.570667 917.335467 516.096 916.5248 514.176 915.735467 512.832L915.607467 512.661333C875.735467 457.450667 729.154133 277.333333 517.079467 277.333333 312.770133 277.333333 161.5168 445.141333 113.6448 505.728M517.079467 802.474667C285.719467 802.474667 119.9168 609.834667 74.626133 550.762667 67.5648 541.546667 64.002133 530.730667 64.002133 518.570667 64.002133 509.290667 66.434133 500.138667 70.978133 492.117333L70.978133 491.221333 75.415467 485.376C120.727467 426.56 286.487467 234.666667 517.079467 234.666667 746.050133 234.666667 902.743467 422.762667 948.2688 485.013333L950.5728 488.170667C956.759467 497.173333 960.002133 507.669333 960.002133 518.570667 960.002133 527.210667 957.911467 535.701333 953.9648 543.36L953.602133 544.576 951.319467 547.946667C908.4608 607.637333 750.5088 802.474667 517.079467 802.474667" fill="#888A91" /></svg>