<svg class="icon" style="width: 1em;height: 1em;vertical-align: middle;fill: currentColor;overflow: hidden;" viewBox="0 0 1024 1024" version="1.1" xmlns="http://www.w3.org/2000/svg"><path d="M768 640v-64.853333a21.333333 21.333333 0 0 1 35.413333-16.213334l125.013334 110.08a21.333333 21.333333 0 0 1 0 30.293334L803.413333 810.666667a21.333333 21.333333 0 0 1-35.413333-16.213334V725.333333h-66.133333a256 256 0 0 1-202.24-98.986666l-170.666667-219.306667A170.666667 170.666667 0 0 0 194.133333 341.333333H85.333333V256h108.8a256 256 0 0 1 202.24 98.986667l170.666667 219.306666A170.666667 170.666667 0 0 0 701.866667 640z" opacity=".3" /><path d="M768 256V191.146667a21.333333 21.333333 0 0 1 35.413333-16.213334l125.013334 110.08a21.333333 21.333333 0 0 1 0 30.293334L803.413333 426.666667a21.333333 21.333333 0 0 1-35.413333-16.64V341.333333h-66.133333a170.666667 170.666667 0 0 0-134.826667 65.706667l-170.666667 219.306667A256 256 0 0 1 194.133333 725.333333H85.333333v-85.333333h108.8a170.666667 170.666667 0 0 0 134.826667-65.706667l170.666667-219.306666A256 256 0 0 1 701.866667 256z"  /></svg>