<svg class="icon" style="width: 1em;height: 1em;vertical-align: middle;fill: currentColor;overflow: hidden;" viewBox="0 0 1024 1024" version="1.1" xmlns="http://www.w3.org/2000/svg"><path d="M512 668.8c-91.2 0-166.4-75.2-166.4-166.4S420.8 336 512 336s166.4 75.2 166.4 166.4S603.2 668.8 512 668.8zM512 400c-56 0-102.4 46.4-102.4 102.4s46.4 102.4 102.4 102.4 102.4-46.4 102.4-102.4S568 400 512 400z" fill="#229BFF" /><path d="M606.4 1009.6H438.4c-38.4 0-70.4-32-70.4-70.4v-62.4c-28.8-11.2-56-25.6-83.2-44.8l-49.6 35.2c-12.8 8-27.2 12.8-41.6 9.6-14.4-1.6-27.2-9.6-35.2-22.4l-104-145.6c-8-11.2-11.2-25.6-9.6-40 3.2-14.4 9.6-27.2 22.4-35.2l51.2-36.8c-9.6-35.2-14.4-72-14.4-107.2 0-33.6 4.8-68.8 12.8-100.8l-57.6-40c-11.2-8-19.2-20.8-22.4-35.2-3.2-14.4 0-28.8 9.6-41.6l102.4-144c8-11.2 20.8-19.2 35.2-22.4 14.4-3.2 28.8 0 40 9.6l56 40c28.8-20.8 57.6-36.8 89.6-48V67.2c0-32 27.2-59.2 59.2-59.2h169.6c32 0 59.2 27.2 59.2 59.2v38.4c32 11.2 62.4 27.2 89.6 46.4L800 115.2c24-17.6 57.6-11.2 75.2 12.8l104 145.6c8 11.2 11.2 25.6 9.6 40-1.6 14.4-9.6 27.2-22.4 35.2L916.8 384c9.6 35.2 14.4 70.4 14.4 105.6 0 35.2-4.8 70.4-14.4 105.6l43.2 30.4c11.2 8 19.2 20.8 22.4 35.2 3.2 14.4 0 28.8-9.6 40l-102.4 145.6c-17.6 24-51.2 30.4-76.8 12.8l-46.4-32c-27.2 19.2-57.6 35.2-89.6 46.4V960c-1.6 27.2-24 49.6-51.2 49.6z m-321.6-256l19.2 14.4c36.8 27.2 68.8 44.8 105.6 56l22.4 6.4v108.8c0 3.2 3.2 6.4 6.4 6.4H592v-115.2l22.4-6.4c40-12.8 78.4-32 112-57.6l19.2-14.4 76.8 52.8 91.2-131.2-73.6-51.2 8-22.4c11.2-35.2 17.6-72 17.6-108.8s-6.4-73.6-17.6-108.8l-8-22.4 80-57.6-92.8-129.6-83.2 57.6-19.2-14.4c-32-25.6-70.4-44.8-112-57.6L592 152v-80H432v80l-22.4 8c-38.4 12.8-75.2 32-110.4 59.2l-19.2 14.4-84.8-60.8-91.2 129.6 88 60.8-6.4 22.4c-11.2 33.6-16 68.8-16 104 0 36.8 6.4 73.6 17.6 110.4l8 22.4-81.6 57.6 92.8 129.6 78.4-56z m544 56zM99.2 310.4z m736-142.4z" fill="#43484D" /></svg>